# xmcd
#
# Track frame offsets:
#	225
#	17960
#	37546
#	56529
#	83282
#	108722
#	132757
#	157714
#
# Disc length: 2358 seconds
#
# Revision: 1
# Processed by: cddbd v1.5.1PL0 Copyright (c) Steve Scherf et al.
# Submitted via: CDex 1.50Beta5
#
DISCID=4e093308
DTITLE=中村 健佐 - Without You
DYEAR=1900
DGENRE=Pop
TTITLE0=Without you
TTITLE1=New York city serenade
TTITLE2=Saving all my love for you
TTITLE3=Georgia on my mind
TTITLE4=Virtual insanity
TTITLE5=Hero
TTITLE6=Through the fire
TTITLE7=Ellie my love
EXTD=
EXTT0=
EXTT1=
EXTT2=
EXTT3=
EXTT4=
EXTT5=
EXTT6=
EXTT7=
PLAYORDER=
